# xmcd
#
# Track frame offsets:
#	150
#	63872
#	105800
#	113903
#	143945
#	168769
#	251329
#	297242
#
# Disc length: 4225 seconds
#
# Revision: 1
# Processed by: cddbd v1.5.2PL0 Copyright (c) Steve Scherf et al.
# Submitted via: audiograbber 1.83.01
#
DISCID=63107f08
DTITLE=Grateful Dead - 73-06-26 Seattle Centre Arena, Seattle WA
DYEAR=1900
DGENRE=
TTITLE0=He's Gone
TTITLE1=Truckin'
TTITLE2=Drums
TTITLE3=The Other One
TTITLE4=Me and Bobby McGee
TTITLE5=The Other One
TTITLE6=Sugar Magnolia
TTITLE7=Johnny B Goode
EXTD=
EXTT0=
EXTT1=
EXTT2=
EXTT3=
EXTT4=
EXTT5=
EXTT6=
EXTT7=
PLAYORDER=
